<mxfile host="app.diagrams.net" modified="2023-05-30T19:38:19.921Z" agent="Mozilla/5.0 (Windows NT 10.0; Win64; x64) AppleWebKit/537.36 (KHTML, like Gecko) Chrome/113.0.0.0 Safari/537.36" etag="6TLAEAcrQ7-hWtJJucgY" version="21.3.5" type="github" pages="2">
  <diagram id="C5RBs43oDa-KdzZeNtuy" name="R01">
    <mxGraphModel dx="674" dy="569" grid="1" gridSize="10" guides="1" tooltips="1" connect="1" arrows="1" fold="1" page="1" pageScale="1" pageWidth="827" pageHeight="1169" math="0" shadow="0">
      <root>
        <mxCell id="WIyWlLk6GJQsqaUBKTNV-0" />
        <mxCell id="WIyWlLk6GJQsqaUBKTNV-1" parent="WIyWlLk6GJQsqaUBKTNV-0" />
        <mxCell id="muSSkHwhCKw9HDg3MUn7-5" value="" style="edgeStyle=orthogonalEdgeStyle;rounded=0;orthogonalLoop=1;jettySize=auto;html=1;" edge="1" parent="WIyWlLk6GJQsqaUBKTNV-1" source="muSSkHwhCKw9HDg3MUn7-0" target="muSSkHwhCKw9HDg3MUn7-3">
          <mxGeometry relative="1" as="geometry" />
        </mxCell>
        <mxCell id="muSSkHwhCKw9HDg3MUn7-0" value="R01" style="ellipse;whiteSpace=wrap;html=1;" vertex="1" parent="WIyWlLk6GJQsqaUBKTNV-1">
          <mxGeometry x="170" y="120" width="120" height="30" as="geometry" />
        </mxCell>
        <mxCell id="muSSkHwhCKw9HDg3MUn7-2" value="Fine" style="ellipse;whiteSpace=wrap;html=1;" vertex="1" parent="WIyWlLk6GJQsqaUBKTNV-1">
          <mxGeometry x="170" y="370" width="120" height="30" as="geometry" />
        </mxCell>
        <mxCell id="muSSkHwhCKw9HDg3MUn7-4" style="edgeStyle=orthogonalEdgeStyle;rounded=0;orthogonalLoop=1;jettySize=auto;html=1;entryX=0.5;entryY=0;entryDx=0;entryDy=0;" edge="1" parent="WIyWlLk6GJQsqaUBKTNV-1" source="muSSkHwhCKw9HDg3MUn7-3" target="muSSkHwhCKw9HDg3MUn7-2">
          <mxGeometry relative="1" as="geometry" />
        </mxCell>
        <mxCell id="muSSkHwhCKw9HDg3MUn7-3" value="Scrivi&lt;br&gt;1. Aggiungi&amp;nbsp;&lt;br&gt;2. Modifica&lt;br&gt;3. Elimina&lt;br&gt;4. Prenota&lt;br&gt;5. Valuta&lt;br&gt;6. Stampa Migliore" style="shape=process;whiteSpace=wrap;html=1;backgroundOutline=1;" vertex="1" parent="WIyWlLk6GJQsqaUBKTNV-1">
          <mxGeometry x="170" y="200" width="120" height="120" as="geometry" />
        </mxCell>
      </root>
    </mxGraphModel>
  </diagram>
  <diagram id="nJclh3v8kHDLQqEDeBkj" name="R02">
    <mxGraphModel dx="674" dy="569" grid="1" gridSize="10" guides="1" tooltips="1" connect="1" arrows="1" fold="1" page="1" pageScale="1" pageWidth="827" pageHeight="1169" math="0" shadow="0">
      <root>
        <mxCell id="0" />
        <mxCell id="1" parent="0" />
      </root>
    </mxGraphModel>
  </diagram>
</mxfile>
